HIERARCHY
ROOT Hips
{
	OFFSET 0.000000 89.005402 0.000000
	CHANNELS 6 Xposition Yposition Zposition Xrotation Yrotation Zrotation
	JOINT Spine
	{
		OFFSET 0.116900 10.681000 0.373400
		CHANNELS 3 Xrotation Yrotation Zrotation
		JOINT Spine1
		{
			OFFSET 0.000000 13.840401 0.053500
			CHANNELS 3 Xrotation Yrotation Zrotation
			JOINT Spine2
			{
				OFFSET 0.000000 14.712700 -0.366200
				CHANNELS 3 Xrotation Yrotation Zrotation
				JOINT Neck
				{
					OFFSET 0.000000 35.415497 -3.314200
					CHANNELS 3 Xrotation Yrotation Zrotation
					JOINT Head
					{
						OFFSET 0.000000 16.899200 1.218300
						CHANNELS 3 Xrotation Yrotation Zrotation
						JOINT HeadTop_End
						{
							OFFSET 0.000000 22.206207 2.192500
							CHANNELS 3 Xrotation Yrotation Zrotation
							End Site
							{
								OFFSET 0.000000 22.314178 0.000000
							}
						}
					}
				}
				JOINT LeftShoulder
				{
					OFFSET 12.896400 26.716293 -4.548400
					CHANNELS 3 Xrotation Yrotation Zrotation
					JOINT LeftArm
					{
						OFFSET 19.027000 -4.857010 -1.718400
						CHANNELS 3 Xrotation Yrotation Zrotation
						JOINT LeftForeArm
						{
							OFFSET 24.179897 0.000000 0.000000
							CHANNELS 3 Xrotation Yrotation Zrotation
							JOINT LeftHand
							{
								OFFSET 27.156403 0.000000 0.000000
								CHANNELS 3 Xrotation Yrotation Zrotation
								JOINT LeftHandIndex1
								{
									OFFSET 16.441200 0.000000 0.000000
									CHANNELS 3 Xrotation Yrotation Zrotation
									JOINT LeftHandIndex2
									{
										OFFSET 4.821899 0.000000 0.000000
										CHANNELS 3 Xrotation Yrotation Zrotation
										JOINT LeftHandIndex3
										{
											OFFSET 6.386497 0.000000 0.000000
											CHANNELS 3 Xrotation Yrotation Zrotation
											JOINT LeftHandIndex4
											{
												OFFSET 5.188988 0.000000 0.000000
												CHANNELS 3 Xrotation Yrotation Zrotation
												End Site
												{
													OFFSET -0.178703 5.185913 0.000177
												}
											}
										}
									}
								}
								JOINT LeftHandThumb1
								{
									OFFSET 6.534897 -5.032593 5.900300
									CHANNELS 3 Xrotation Yrotation Zrotation
									JOINT LeftHandThumb2
									{
										OFFSET 3.818176 -2.204422 2.204423
										CHANNELS 3 Xrotation Yrotation Zrotation
										JOINT LeftHandThumb3
										{
											OFFSET 3.252098 -1.877594 1.877601
											CHANNELS 3 Xrotation Yrotation Zrotation
											JOINT LeftHandThumb4
											{
												OFFSET 5.251778 -3.032120 3.032117
												CHANNELS 3 Xrotation Yrotation Zrotation
												End Site
												{
													OFFSET 0.000023 6.780014 0.000000
												}
											}
										}
									}
								}
							}
						}
					}
				}
				JOINT RightShoulder
				{
					OFFSET -12.896300 26.716293 -4.548400
					CHANNELS 3 Xrotation Yrotation Zrotation
					JOINT RightArm
					{
						OFFSET -19.027000 -4.857010 -1.718400
						CHANNELS 3 Xrotation Yrotation Zrotation
						JOINT RightForeArm
						{
							OFFSET -24.179897 0.000000 0.000000
							CHANNELS 3 Xrotation Yrotation Zrotation
							JOINT RightHand
							{
								OFFSET -27.156403 0.000000 0.000000
								CHANNELS 3 Xrotation Yrotation Zrotation
								JOINT RightHandThumb1
								{
									OFFSET -6.591202 -4.852203 5.988100
									CHANNELS 3 Xrotation Yrotation Zrotation
									JOINT RightHandThumb2
									{
										OFFSET -3.818176 -2.204422 2.204423
										CHANNELS 3 Xrotation Yrotation Zrotation
										JOINT RightHandThumb3
										{
											OFFSET -3.252098 -1.877594 1.877601
											CHANNELS 3 Xrotation Yrotation Zrotation
											JOINT RightHandThumb4
											{
												OFFSET -5.251778 -3.032120 3.032117
												CHANNELS 3 Xrotation Yrotation Zrotation
												End Site
												{
													OFFSET -0.000023 6.780014 0.000000
												}
											}
										}
									}
								}
								JOINT RightHandIndex1
								{
									OFFSET -16.029404 0.000000 0.000000
									CHANNELS 3 Xrotation Yrotation Zrotation
									JOINT RightHandIndex2
									{
										OFFSET -5.213303 0.000000 0.000000
										CHANNELS 3 Xrotation Yrotation Zrotation
										JOINT RightHandIndex3
										{
											OFFSET -6.386528 0.000000 0.000000
											CHANNELS 3 Xrotation Yrotation Zrotation
											JOINT RightHandIndex4
											{
												OFFSET -5.189026 0.000000 0.000000
												CHANNELS 3 Xrotation Yrotation Zrotation
												End Site
												{
													OFFSET 0.236702 5.183624 0.001972
												}
											}
										}
									}
								}
							}
						}
					}
				}
			}
		}
	}
	JOINT LeftUpLeg
	{
		OFFSET 14.073000 -7.904099 -1.463000
		CHANNELS 3 Xrotation Yrotation Zrotation
		JOINT LeftLeg
		{
			OFFSET -0.109806 -34.073280 4.093200
			CHANNELS 3 Xrotation Yrotation Zrotation
			JOINT LeftFoot
			{
				OFFSET 0.109806 -29.899420 -6.319000
				CHANNELS 3 Xrotation Yrotation Zrotation
				JOINT LeftToeBase
				{
					OFFSET 1.551100 -14.988700 20.535801
					CHANNELS 3 Xrotation Yrotation Zrotation
					JOINT LeftToe_End
					{
						OFFSET 0.221200 0.570800 13.248301
						CHANNELS 3 Xrotation Yrotation Zrotation
						End Site
						{
							OFFSET 0.000000 13.262435 0.000000
						}
					}
				}
			}
		}
	}
	JOINT RightUpLeg
	{
		OFFSET -13.839300 -7.904099 -1.463000
		CHANNELS 3 Xrotation Yrotation Zrotation
		JOINT RightLeg
		{
			OFFSET 0.109694 -34.073219 4.093300
			CHANNELS 3 Xrotation Yrotation Zrotation
			JOINT RightFoot
			{
				OFFSET -0.109694 -29.899384 -6.319200
				CHANNELS 3 Xrotation Yrotation Zrotation
				JOINT RightToeBase
				{
					OFFSET -1.551100 -14.988700 20.535801
					CHANNELS 3 Xrotation Yrotation Zrotation
					JOINT RightToe_End
					{
						OFFSET -0.221200 0.570900 13.248299
						CHANNELS 3 Xrotation Yrotation Zrotation
						End Site
						{
							OFFSET 0.000000 13.262440 0.000000
						}
					}
				}
			}
		}
	}
}
MOTION
Frames: 8
Frame Time: 0.033333
0.069795 50.685280 9.217777 0.145867 -0.072313 0.869569 10.428094 0.126930 -1.498614 -0.198649 0.213314 -0.355463 -0.198977 0.248514 -0.300882 -1.001771 -1.284342 0.469464 -8.883496 -4.327064 -5.321560 -0.000000 -0.000000 -0.000000 0.823515 -15.262029 -7.868763 4.745428 -21.217931 -54.863607 -0.000001 -62.195272 -0.000021 31.064998 4.314963 41.768427 -0.235305 2.798390 -26.913112 0.396833 2.121278 -21.189294 0.083130 0.984453 -9.653144 -0.000001 -0.000000 -0.000001 6.610621 1.798211 20.801495 2.716381 20.172566 -24.389173 -5.536217 29.852599 5.062605 -0.000001 -0.000001 -0.000001 3.171094 -4.378723 8.782887 -3.950276 37.253409 63.733718 0.000027 55.137812 -0.000035 43.537320 4.741089 -36.277956 -9.383508 -1.613360 -17.604715 3.557068 -24.337002 34.656837 -6.608460 -37.497332 -11.176183 0.000003 0.000001 -0.000001 2.957833 1.012860 13.529997 0.472465 -2.045693 26.006731 0.059746 -0.744412 9.177805 0.000000 -0.000001 -0.000003 -88.306116 -8.300914 14.586817 82.355750 2.967531 -0.536349 7.625277 -6.787185 -8.252139 -0.103113 -0.000001 0.000006 0.000000 -0.000001 -0.000000 -89.571961 9.725358 -10.626101 82.904406 -2.618239 -1.078696 8.615864 -0.161646 9.300453 -0.191616 0.000000 0.000002 0.000000 0.000000 -0.000000 
0.065567 50.703880 9.194715 0.157777 -0.071851 0.871022 10.403271 0.128987 -1.491317 -0.218872 0.227346 -0.364865 -0.219257 0.261802 -0.311649 -1.027172 -1.294344 0.453624 -8.967579 -4.417895 -5.216476 -0.000000 -0.000000 -0.000000 -1.027856 -17.587879 -4.882187 9.034350 -24.931007 -47.774885 -0.000005 -63.413389 0.000004 16.522410 0.321422 32.021354 -0.177430 2.880687 -27.209778 0.440517 2.230639 -22.340009 0.098352 1.070082 -10.502251 0.000000 -0.000004 0.000001 4.507059 0.401198 21.132325 2.591422 19.887141 -22.490778 -5.782208 29.175908 5.000618 0.000002 -0.000001 0.000002 0.544022 -5.477593 8.861054 1.417034 43.214388 51.714217 -0.000008 58.091333 0.000002 27.340708 8.492395 -19.024780 -8.784540 -1.548318 -16.748018 5.930802 -24.547951 34.047940 -6.221256 -38.682360 -11.835998 -0.000000 0.000001 0.000004 3.044734 0.821187 16.075555 0.515276 -2.131197 27.181846 0.090437 -0.914282 11.297369 0.000001 -0.000000 0.000001 -88.291875 -8.283753 14.584899 82.276138 2.979316 -0.535391 7.677138 -6.790102 -8.243804 -0.103113 -0.000000 0.000006 -0.000000 0.000001 -0.000000 -89.558137 9.710399 -10.625076 82.829424 -2.626579 -1.079545 8.662338 -0.159109 9.291059 -0.191616 0.000000 0.000002 0.000000 0.000000 0.000000 
0.062328 50.716759 9.178403 0.165480 -0.070687 0.871839 10.382574 0.131885 -1.493944 -0.236930 0.253473 -0.380341 -0.237388 0.287427 -0.323990 -1.012534 -1.309821 0.435633 -8.986027 -4.522464 -5.173922 0.000000 0.000000 -0.000001 -2.664564 -20.197650 -2.137335 15.148275 -28.577692 -39.393461 -0.000010 -64.991845 -0.000023 2.789403 3.952173 21.347652 -0.065948 3.024302 -28.186048 0.625853 2.636510 -26.702442 0.115826 1.160468 -11.400845 -0.000000 -0.000000 -0.000000 4.677265 -0.948367 16.058987 2.469984 19.578814 -20.421106 -6.049820 28.437662 4.929683 -0.000000 0.000001 0.000001 -2.467758 -4.507901 8.205689 10.158190 48.554770 38.877416 0.000012 58.856389 -0.000001 14.878560 4.543365 -9.492337 -8.086906 -1.467806 -15.750377 8.516310 -24.989333 33.258971 -5.889173 -40.135558 -12.647606 -0.000001 0.000001 0.000002 3.129657 0.653172 18.353644 0.674337 -2.415698 31.189349 0.132309 -1.103370 13.675651 -0.000000 -0.000002 -0.000000 -88.281220 -8.273473 14.583183 82.232097 2.991166 -0.534827 7.702678 -6.791599 -8.236891 -0.103113 0.000000 0.000006 0.000000 0.000000 -0.000000 -89.549258 9.700592 -10.623015 82.785916 -2.630276 -1.080628 8.687587 -0.161240 9.280476 -0.191616 0.000000 0.000002 -0.000000 0.000000 -0.000000 
0.060416 50.734016 9.157181 0.150651 -0.069813 0.872483 10.336377 0.131879 -1.511608 -0.294811 0.287418 -0.396141 -0.295252 0.320498 -0.337890 -0.955342 -1.313707 0.379200 -8.911423 -4.611437 -5.159185 -0.000000 -0.000001 -0.000000 -4.214237 -22.968166 0.404506 21.107149 -30.552345 -31.210239 -0.000008 -66.571074 -0.000003 -5.567435 12.144315 11.632462 0.050688 3.124534 -28.759201 0.834729 3.015711 -30.936864 0.134367 1.248745 -12.281434 -0.000000 0.000000 -0.000002 6.451845 -2.747640 7.969507 2.351062 19.249187 -18.184947 -6.339496 27.636342 4.848764 -0.000000 -0.000001 0.000000 -6.694183 -0.912886 5.498610 21.954282 50.100619 28.081244 0.000001 58.904508 -0.000001 5.179283 0.949505 -7.971602 -7.818854 -1.088016 -15.039619 10.442990 -24.862117 32.042808 -5.963615 -40.415319 -13.504346 -0.000000 0.000000 0.000003 3.201181 0.523593 20.144818 0.879735 -2.725974 35.766327 0.174139 -1.262936 15.701545 0.000000 -0.000001 0.000001 -88.241359 -8.260958 14.581902 82.177455 3.008509 -0.534323 7.732648 -6.793289 -8.232194 -0.103113 -0.000001 0.000006 -0.000000 -0.000001 0.000000 -89.513679 9.686656 -10.618800 82.727845 -2.624064 -1.082488 8.721590 -0.169244 9.265600 -0.191616 0.000000 0.000002 -0.000000 0.000000 0.000000 
0.065514 50.767197 9.114659 0.102228 -0.069861 0.870656 10.220555 0.121958 -1.550015 -0.463579 0.292939 -0.437856 -0.463972 0.325755 -0.379434 -0.839092 -1.299090 0.318891 -8.819691 -4.616177 -5.168178 -0.000000 0.000000 0.000000 -5.400964 -25.924613 2.833468 21.711559 -29.497634 -26.723438 -0.000030 -67.010364 -0.000026 -9.867883 19.242764 4.713671 0.078110 2.946640 -26.821536 0.759835 2.887273 -29.482795 0.149011 1.314224 -12.936550 0.000000 -0.000000 -0.000001 4.781984 -4.649962 6.442027 2.246502 18.914728 -15.877138 -6.637081 26.811240 4.761293 -0.000002 0.000001 0.000001 -12.120677 4.504786 1.583685 31.299974 44.836152 23.205861 -0.000018 62.028827 0.000019 -4.842065 -0.499976 -1.134384 -8.462915 -0.194597 -15.016936 10.936996 -23.333014 30.293904 -6.645918 -38.163030 -14.184982 -0.000001 0.000002 -0.000002 3.183207 0.555105 19.705448 0.908467 -2.765416 36.366335 0.198842 -1.347633 16.785291 -0.000000 0.000000 -0.000000 -88.154800 -8.232179 14.574732 82.071054 3.031649 -0.532207 7.797415 -6.797589 -8.203058 -0.103113 -0.000000 0.000006 0.000000 -0.000001 0.000000 -89.418180 9.664936 -10.617088 82.623815 -2.632080 -1.084220 8.775687 -0.170207 9.252799 -0.191616 0.000000 0.000002 0.000000 0.000001 0.000000 
0.075025 50.811203 9.040483 -0.013261 -0.070488 0.858824 10.007829 0.081848 -1.597604 -0.771889 0.221681 -0.500485 -0.772236 0.254791 -0.442604 -0.617925 -1.296246 0.314467 -8.902493 -4.538837 -5.367126 -0.000000 -0.000001 -0.000000 -6.371090 -28.986609 5.129028 13.553959 -24.924293 -27.965509 -0.000006 -65.244276 -0.000001 -15.817957 22.565012 3.048674 0.046530 2.484334 -22.425229 0.448416 2.249738 -22.541950 0.158398 1.354497 -13.340266 0.000001 0.000002 0.000000 -0.030853 -6.371974 10.246177 2.159935 18.585817 -13.557417 -6.935200 25.983023 4.669257 -0.000001 0.000000 -0.000002 -17.964577 10.319342 -1.264579 32.443269 34.744476 23.547427 -0.000026 64.549270 0.000031 -10.419512 -6.561124 -1.544955 -10.623085 1.527628 -16.124098 9.301531 -19.262602 28.095828 -8.061145 -31.682365 -14.285787 -0.000001 0.000004 -0.000000 3.022433 0.867381 15.453354 0.612985 -2.311411 29.702037 0.185117 -1.301325 16.191781 -0.000000 0.000000 -0.000000 -88.002281 -8.176478 14.569663 81.921910 3.046775 -0.528885 7.897906 -6.803407 -8.144069 -0.103113 -0.000000 0.000006 0.000000 -0.000000 0.000000 -89.239830 9.622062 -10.629411 82.457684 -2.640921 -1.087420 8.875015 -0.165766 9.229013 -0.191616 -0.000000 0.000002 -0.000000 0.000001 0.000000 
0.091183 50.829315 8.934786 -0.246936 -0.081169 0.822851 9.699920 0.040184 -1.595984 -1.205981 0.109428 -0.477349 -1.206247 0.143541 -0.419889 -0.273351 -1.303578 0.255545 -9.373904 -4.505723 -5.802618 0.000000 -0.000000 0.000001 -8.005224 -31.987220 7.016428 -1.225700 -15.797710 -32.762481 -0.000001 -61.348233 0.000003 -25.659303 20.028867 6.916611 0.045466 1.922234 -17.142359 0.164834 1.381279 -13.609196 0.165220 1.382930 -13.625831 -0.000004 0.000001 0.000001 -5.788079 -8.163326 15.682577 2.069767 18.253909 -11.210957 -7.243801 25.124450 4.569454 -0.000004 0.000001 -0.000001 -24.389639 14.589228 -2.546862 25.219866 23.415424 24.103399 -0.000003 63.787895 -0.000006 -18.116600 -11.612017 -15.099873 -13.703706 3.806881 -17.805239 6.767113 -13.588639 26.014280 -9.788039 -22.705842 -13.827297 -0.000000 -0.000001 -0.000001 2.825696 1.362710 9.012168 0.259204 -1.533554 19.186249 0.148284 -1.167037 14.481721 0.000001 0.000001 -0.000001 -87.795094 -8.133292 14.588813 81.804240 3.045888 -0.525996 8.029460 -6.809415 -8.058349 -0.103113 0.000000 0.000006 0.000000 0.000001 0.000000 -88.986027 9.553748 -10.638272 82.293022 -2.635277 -1.090379 9.011560 -0.158221 9.197223 -0.191616 -0.000000 0.000002 -0.000000 -0.000000 -0.000000 
0.106699 50.799385 8.828729 -0.572639 -0.093669 0.767409 9.356650 0.035905 -1.566340 -1.678445 0.061315 -0.396168 -1.678698 0.097092 -0.339126 0.002053 -1.328190 0.177613 -9.990946 -4.613760 -6.083665 -0.000000 0.000000 -0.000000 -7.837367 -35.425138 9.094586 -21.631033 -0.853862 -36.431529 -0.000015 -56.170762 -0.000021 -34.706319 9.554732 12.304805 0.097331 1.475837 -12.797787 0.038084 0.667612 -6.529131 0.174594 1.421095 -14.009364 -0.000000 -0.000000 0.000001 -10.652801 -10.152455 19.536211 2.029955 17.967593 -9.056593 -7.513386 24.373682 4.478541 0.000001 0.000001 0.000001 -31.529765 17.656488 -1.957641 13.383313 12.276143 22.563993 0.000010 61.624535 -0.000011 -29.557288 -5.954136 -32.354866 -15.559077 5.410119 -18.448759 5.945665 -9.940818 24.371744 -10.899743 -17.076441 -13.692103 -0.000003 -0.000001 -0.000003 2.741181 1.633506 5.565136 0.130013 -1.093804 13.554784 0.143056 -1.146624 14.223311 -0.000002 -0.000001 -0.000000 -87.585059 -8.118356 14.632968 81.784036 3.007940 -0.524124 8.152276 -6.813636 -7.963301 -0.103113 -0.000001 0.000006 0.000000 0.000000 0.000000 -88.715777 9.477775 -10.641542 82.214379 -2.617713 -1.091674 9.136707 -0.151143 9.165713 -0.191616 -0.000001 0.000002 -0.000000 -0.000001 0.000000 
